<svg preserveAspectRatio="none" width="35" height="35" viewBox="0 0 35 35" fill="none" xmlns="http://www.w3.org/2000/svg">
<path d="M17.4999 24.2302C19.3511 24.2302 20.9353 23.5711 22.2534 22.2536C23.5712 20.9361 24.2302 19.351 24.2302 17.5V6.73095C24.2302 4.8799 23.5717 3.29553 22.2534 1.97733C20.9353 0.659429 19.3511 0 17.4999 0C15.6489 0 14.0645 0.659429 12.7463 1.97733C11.4282 3.29531 10.7692 4.8799 10.7692 6.73095V17.5C10.7692 19.3509 11.4284 20.9361 12.7463 22.2536C14.0642 23.5711 15.6489 24.2302 17.4999 24.2302Z" fill="#130A4C"/>
<path d="M29.2152 13.8612C28.9495 13.5947 28.6334 13.4615 28.2688 13.4615C27.9045 13.4615 27.5891 13.5947 27.3223 13.8612C27.0561 14.1276 26.9229 14.4431 26.9229 14.8075V17.5C26.9229 20.0942 26.0007 22.3131 24.1567 24.157C22.3133 26.001 20.0941 26.923 17.4998 26.923C14.9056 26.923 12.6866 26.001 10.8425 24.157C8.9987 22.3136 8.07685 20.0943 8.07685 17.5V14.8075C8.07685 14.4431 7.94358 14.1276 7.67726 13.8612C7.41079 13.5947 7.09563 13.4615 6.73081 13.4615C6.36599 13.4615 6.05046 13.5947 5.78414 13.8612C5.5176 14.1276 5.3844 14.4431 5.3844 14.8075V17.5C5.3844 20.5989 6.41874 23.2949 8.48683 25.5873C10.555 27.8798 13.1106 29.1943 16.1536 29.5306V32.3073H10.7691C10.4045 32.3073 10.089 32.4407 9.82264 32.7072C9.55617 32.9735 9.4229 33.2891 9.4229 33.6537C9.4229 34.0177 9.55617 34.3339 9.82264 34.6001C10.089 34.8664 10.4045 35 10.7691 35H24.2302C24.5947 35 24.9106 34.8664 25.1766 34.6001C25.4434 34.3339 25.5767 34.0177 25.5767 33.6537C25.5767 33.2891 25.4434 32.9735 25.1766 32.7072C24.9107 32.4407 24.5948 32.3073 24.2302 32.3073H18.8463V29.5306C21.8888 29.1943 24.4442 27.8798 26.5126 25.5873C28.581 23.2949 29.6156 20.5989 29.6156 17.5V14.8075C29.6156 14.4431 29.482 14.1279 29.2152 13.8612Z" fill="#130A4C"/>
</svg>
