<svg preserveAspectRatio="none" width="148" height="148" viewBox="0 0 148 148" fill="none" xmlns="http://www.w3.org/2000/svg">
<path d="M64.75 125.973V21.9977C64.75 20.0609 63.1891 18.5 61.2234 18.5H40.5266C38.5609 18.5 37 20.0609 37 21.9977V125.973C37 127.91 38.5609 129.5 40.5266 129.5H61.2234C63.1891 129.5 64.75 127.939 64.75 125.973Z" fill="white"/>
<path d="M107.473 18.5H86.7766C84.8398 18.5 83.25 20.0609 83.25 21.9977V125.973C83.25 127.91 84.8109 129.5 86.7766 129.5H107.473C109.41 129.5 111 127.939 111 125.973V21.9977C111 20.0609 109.439 18.5 107.473 18.5Z" fill="white"/>
</svg>
