<svg preserveAspectRatio="none" width="36" height="36" viewBox="0 0 36 36" fill="none" xmlns="http://www.w3.org/2000/svg">
<path d="M29.0321 31.7242H22.4696C21.4626 31.7242 20.6466 30.9082 20.6466 29.9013V23.3388C20.6466 22.533 19.994 21.8804 19.1883 21.8804H16.2716C15.4659 21.8804 14.8133 22.533 14.8133 23.3388V29.9013C14.8133 30.9082 13.9974 31.7242 12.9904 31.7242H6.4279C5.42092 31.7242 4.60498 30.9082 4.60498 29.9013V15.9836C4.60498 14.3073 5.37352 12.7235 6.68967 11.6867L17.0526 3.52073C17.45 3.20865 18.01 3.20865 18.4066 3.52073L28.771 11.6867C30.0872 12.7235 30.855 14.3066 30.855 15.9822V29.9013C30.855 30.9082 30.039 31.7242 29.0321 31.7242Z" fill="#BEA4F6"/>
</svg>
