<svg preserveAspectRatio="none" width="84" height="84" viewBox="0 0 84 84" fill="none" xmlns="http://www.w3.org/2000/svg">
<path d="M8.33333 8.33333H25.0417V0H0V25H8.33333V8.33333ZM8.33333 58.3333H0V83.3333H25.0417V75H8.33333V58.3333ZM75 75H58.3333V83.3333H83.3333V58.3333H75V75ZM58.3333 8.33333H75V25H83.3333V0H58.3333V8.33333Z" fill="#BEA4F6"/>
<path d="M12.5 37.5H37.5V12.5H12.5V37.5ZM20.8333 20.8333H29.1667V29.1667H20.8333V20.8333ZM12.5 70.8333H37.5V45.8333H12.5V70.8333ZM20.8333 54.1667H29.1667V62.5H20.8333V54.1667ZM70.8333 12.5H45.8333V37.5H70.8333V12.5ZM62.5 29.1667H54.1667V20.8333H62.5V29.1667ZM45.875 45.8333H54.2083V54.1667H45.875V45.8333ZM54.2083 54.1667H62.5417V62.5H54.2083V54.1667ZM62.5417 62.5H70.875V70.8333H62.5417V62.5ZM62.5417 45.8333H70.875V54.1667H62.5417V45.8333Z" fill="#BEA4F6"/>
</svg>
