<svg preserveAspectRatio="none" width="18" height="22" viewBox="0 0 18 22" fill="none" xmlns="http://www.w3.org/2000/svg">
<path d="M12.2143 5.5C12.2143 4.58832 11.8756 3.71398 11.2728 3.06932C10.67 2.42466 9.85248 2.0625 9 2.0625C8.14752 2.0625 7.32995 2.42466 6.72716 3.06932C6.12436 3.71398 5.78571 4.58832 5.78571 5.5C5.78571 6.41168 6.12436 7.28602 6.72716 7.93068C7.32995 8.57534 8.14752 8.9375 9 8.9375C9.85248 8.9375 10.67 8.57534 11.2728 7.93068C11.8756 7.28602 12.2143 6.41168 12.2143 5.5ZM3.85714 5.5C3.85714 4.04131 4.39898 2.64236 5.36345 1.61091C6.32792 0.579463 7.63603 0 9 0C10.364 0 11.6721 0.579463 12.6365 1.61091C13.601 2.64236 14.1429 4.04131 14.1429 5.5C14.1429 6.95869 13.601 8.35764 12.6365 9.38909C11.6721 10.4205 10.364 11 9 11C7.63603 11 6.32792 10.4205 5.36345 9.38909C4.39898 8.35764 3.85714 6.95869 3.85714 5.5ZM1.9808 19.9375H16.0192C15.6616 17.2176 13.4759 15.125 10.8362 15.125H7.16384C4.52411 15.125 2.33839 17.2176 1.9808 19.9375ZM0 20.7238C0 16.4914 3.20625 13.0625 7.16384 13.0625H10.8362C14.7938 13.0625 18 16.4914 18 20.7238C18 21.4285 17.4656 22 16.8067 22H1.1933C0.534375 22 0 21.4285 0 20.7238Z" fill="white" stroke="black"/>
</svg>
