<svg preserveAspectRatio="none" width="18" height="17" viewBox="0 0 18 17" fill="none" xmlns="http://www.w3.org/2000/svg">
<path d="M6.3979 5.93987C6.3979 5.93987 3.3251 6.28346 1.27527 6.51317C1.09051 6.53575 0.927145 6.66042 0.865884 6.84988C0.804622 7.03935 0.865884 7.23666 1.00202 7.36134C2.52481 8.76415 4.81288 10.8649 4.81288 10.8649C4.81093 10.8649 4.1847 13.9209 3.76851 15.9598C3.73351 16.1444 3.79963 16.3397 3.9591 16.4565C4.11761 16.5734 4.32181 16.5753 4.48226 16.484C6.27537 15.4552 8.96116 13.9081 8.96116 13.9081C8.96116 13.9081 11.6479 15.4552 13.4381 16.485C13.6015 16.5753 13.8057 16.5734 13.9642 16.4565C14.1237 16.3397 14.1898 16.1444 14.1538 15.9608C13.7376 13.9209 13.1124 10.8649 13.1124 10.8649C13.1124 10.8649 15.4004 8.76415 16.9232 7.36428C17.0593 7.23568 17.1196 7.03836 17.0593 6.84988C16.9991 6.6614 16.8357 6.53673 16.6509 6.51513C14.6011 6.28346 11.5273 5.93987 11.5273 5.93987C11.5273 5.93987 10.2535 3.09498 9.40457 1.19839C9.32484 1.02856 9.15758 0.909775 8.96116 0.909775C8.76473 0.909775 8.5965 1.02954 8.52066 1.19839C7.67077 3.09498 6.3979 5.93987 6.3979 5.93987Z" fill="#FAFECA" stroke="black" stroke-width="0.5"/>
</svg>
