<svg preserveAspectRatio="none" width="27" height="26" viewBox="0 0 27 26" fill="none" xmlns="http://www.w3.org/2000/svg">
<path d="M9.2365 8.36254C9.2365 8.36254 4.12797 8.93375 0.720129 9.31564C0.41297 9.35318 0.141378 9.56045 0.0395307 9.87543C-0.0623166 10.1904 0.0395305 10.5185 0.265858 10.7257C2.79749 13.0579 6.6014 16.5504 6.6014 16.5504C6.59817 16.5504 5.55707 21.631 4.86515 25.0207C4.80695 25.3275 4.91688 25.6523 5.18201 25.8465C5.44552 26.0407 5.78501 26.044 6.05175 25.8922C9.03281 24.1818 13.4979 21.6097 13.4979 21.6097C13.4979 21.6097 17.9647 24.1818 20.9409 25.8938C21.2124 26.044 21.5519 26.0407 21.8154 25.8465C22.0806 25.6523 22.1905 25.3275 22.1307 25.0223C21.4388 21.631 20.3993 16.5504 20.3993 16.5504C20.3993 16.5504 24.2032 13.0579 26.7348 10.7306C26.9612 10.5168 27.0614 10.1888 26.9612 9.87543C26.8609 9.56208 26.5893 9.35481 26.2822 9.31891C22.8743 8.93375 17.7642 8.36254 17.7642 8.36254C17.7642 8.36254 15.6464 3.63291 14.2351 0.479818C14.1025 0.197476 13.8245 0 13.4979 0C13.1714 0 12.8917 0.199108 12.7656 0.479818C11.3527 3.63291 9.2365 8.36254 9.2365 8.36254Z" fill="#FAFECA" stroke="black" stroke-width="0.5"/>
</svg>
